<svg xmlns="http://www.w3.org/2000/svg" viewBox="0 0 256 256" role="img" aria-label="ThigaoA.i premium logo">
  <defs>
    <linearGradient id="premium-edge" x1="36" y1="28" x2="222" y2="224" gradientUnits="userSpaceOnUse">
      <stop stop-color="#fde68a"/>
      <stop offset="0.34" stop-color="#22d3ee"/>
      <stop offset="0.72" stop-color="#60a5fa"/>
      <stop offset="1" stop-color="#f59e0b"/>
    </linearGradient>
    <linearGradient id="premium-core" x1="70" y1="54" x2="190" y2="204" gradientUnits="userSpaceOnUse">
      <stop stop-color="#ffffff"/>
      <stop offset="0.42" stop-color="#dffcff"/>
      <stop offset="1" stop-color="#93c5fd"/>
    </linearGradient>
    <radialGradient id="premium-aura" cx="0" cy="0" r="1" gradientTransform="matrix(116 124 -124 116 134 102)" gradientUnits="userSpaceOnUse">
      <stop stop-color="#22d3ee" stop-opacity="0.32"/>
      <stop offset="0.48" stop-color="#1d4ed8" stop-opacity="0.16"/>
      <stop offset="1" stop-color="#020617" stop-opacity="0"/>
    </radialGradient>
    <filter id="premium-glow" x="-30%" y="-30%" width="160%" height="160%">
      <feGaussianBlur stdDeviation="5" result="blur"/>
      <feColorMatrix in="blur" type="matrix" values="0 0 0 0 0.12 0 0 0 0 0.86 0 0 0 0 0.92 0 0 0 0.72 0"/>
      <feMerge>
        <feMergeNode/>
        <feMergeNode in="SourceGraphic"/>
      </feMerge>
    </filter>
  </defs>

  <rect x="16" y="16" width="224" height="224" rx="64" fill="#020617"/>
  <rect x="16" y="16" width="224" height="224" rx="64" fill="url(#premium-aura)"/>
  <rect x="21.5" y="21.5" width="213" height="213" rx="58.5" fill="none" stroke="url(#premium-edge)" stroke-width="3" opacity="0.82"/>
  <path d="M52 76h84" stroke="url(#premium-core)" stroke-width="18" stroke-linecap="round"/>
  <path d="M94 76v106" stroke="url(#premium-core)" stroke-width="18" stroke-linecap="round"/>

  <g filter="url(#premium-glow)">
    <path d="M128 183 168 73l40 110" fill="none" stroke="url(#premium-edge)" stroke-width="15" stroke-linecap="round" stroke-linejoin="round"/>
    <path d="M146 142h43" stroke="#f8fafc" stroke-width="12" stroke-linecap="round"/>
    <path d="M101 128c35 0 57-17 72-55" fill="none" stroke="url(#premium-edge)" stroke-width="11" stroke-linecap="round"/>
  </g>

  <path d="M48 184c48 30 112 31 160 1" fill="none" stroke="url(#premium-edge)" stroke-width="5" stroke-linecap="round" opacity="0.66"/>
  <path d="M210 58h1" stroke="#f8fafc" stroke-width="18" stroke-linecap="round"/>
  <circle cx="210" cy="58" r="24" fill="#22d3ee" opacity="0.12"/>
  <circle cx="210" cy="58" r="36" fill="#22d3ee" opacity="0.055"/>
  <circle cx="210" cy="58" r="4" fill="#020617" opacity="0.5"/>
</svg>
