<svg xmlns="http://www.w3.org/2000/svg" viewBox="0 0 256 256" role="img" aria-label="ThigaoA.i wow logo">
  <defs>
    <linearGradient id="outer" x1="30" y1="24" x2="226" y2="232" gradientUnits="userSpaceOnUse">
      <stop stop-color="#fde68a"/>
      <stop offset="0.28" stop-color="#22d3ee"/>
      <stop offset="0.64" stop-color="#3b82f6"/>
      <stop offset="1" stop-color="#f59e0b"/>
    </linearGradient>
    <linearGradient id="beam" x1="66" y1="48" x2="198" y2="208" gradientUnits="userSpaceOnUse">
      <stop stop-color="#ffffff"/>
      <stop offset="0.36" stop-color="#dffcff"/>
      <stop offset="0.72" stop-color="#67e8f9"/>
      <stop offset="1" stop-color="#93c5fd"/>
    </linearGradient>
    <linearGradient id="shadow-beam" x1="92" y1="62" x2="188" y2="188" gradientUnits="userSpaceOnUse">
      <stop stop-color="#0f172a"/>
      <stop offset="1" stop-color="#020617"/>
    </linearGradient>
    <radialGradient id="atmosphere" cx="0" cy="0" r="1" gradientTransform="matrix(122 136 -136 122 132 94)" gradientUnits="userSpaceOnUse">
      <stop stop-color="#22d3ee" stop-opacity="0.28"/>
      <stop offset="0.48" stop-color="#1e40af" stop-opacity="0.16"/>
      <stop offset="1" stop-color="#020617" stop-opacity="0"/>
    </radialGradient>
    <filter id="soft-light" x="-28%" y="-28%" width="156%" height="156%">
      <feGaussianBlur stdDeviation="3.8" result="blur"/>
      <feColorMatrix in="blur" type="matrix" values="0 0 0 0 0.14 0 0 0 0 0.82 0 0 0 0 0.9 0 0 0 0.62 0"/>
      <feMerge>
        <feMergeNode/>
        <feMergeNode in="SourceGraphic"/>
      </feMerge>
    </filter>
  </defs>

  <rect x="14" y="14" width="228" height="228" rx="68" fill="#020617"/>
  <rect x="14" y="14" width="228" height="228" rx="68" fill="url(#atmosphere)"/>
  <rect x="20.5" y="20.5" width="215" height="215" rx="61.5" fill="none" stroke="url(#outer)" stroke-width="3" opacity="0.78"/>

  <g filter="url(#soft-light)">
    <path d="M54 70H150" stroke="url(#beam)" stroke-width="18" stroke-linecap="round"/>
    <path d="M102 70V188" stroke="url(#beam)" stroke-width="18" stroke-linecap="round"/>
    <path d="M102 188L165 70L218 188" fill="none" stroke="url(#outer)" stroke-width="17" stroke-linecap="round" stroke-linejoin="round"/>
    <path d="M134 142H194" stroke="url(#beam)" stroke-width="13" stroke-linecap="round"/>
  </g>

  <path d="M102 126C138 124 166 104 180 70" fill="none" stroke="url(#shadow-beam)" stroke-width="7" stroke-linecap="round" opacity="0.7"/>
  <path d="M42 184C84 211 171 214 214 184" fill="none" stroke="url(#outer)" stroke-width="4.5" stroke-linecap="round" opacity="0.72"/>
  <path d="M59 202C99 221 157 222 197 202" fill="none" stroke="#dffcff" stroke-width="2.2" stroke-linecap="round" opacity="0.26"/>
  <path d="M207 184h13v13h-13z" fill="#93c5fd" opacity="0.96" transform="rotate(45 213.5 190.5)"/>
  <path d="M212 166v12" stroke="#dffcff" stroke-width="5" stroke-linecap="round" opacity="0.82"/>
</svg>
